<?xml version="1.0" encoding="UTF-8"?>
<svg id="Layer_1" data-name="Layer 1" xmlns="http://www.w3.org/2000/svg" width="945.12" height="791.21" viewBox="0 0 945.12 791.21">
  <path d="M888.04,454.71c-.11,0-.23-.02-.34-.06-.52-.19-.79-.76-.6-1.28,3.22-8.82,2.59-17.84,1.6-27.07-.99-9.17-3.18-18.25-5.3-27.04-1.91-7.93-3.89-16.12-5-24.39-1.11-8.28-2.36-16.7-3.58-24.83-1.13-7.59-2.31-15.44-3.36-23.18-2.29-16.84-4.93-34.76-9.92-52.36-6.8-23.97-15.95-41.95-28.8-56.58-10.44-11.88-23.18-19.16-37.88-21.62-19.85-3.33-38.58,1.16-55.65,13.36-17.18,12.27-29.54,29.24-37.8,51.88-4.6,12.62-8.19,26.47-11.62,44.92-1.09,5.84-1.89,11.89-2.66,17.75-.55,4.15-1.12,8.45-1.79,12.65-.77,4.86-1.46,9.82-2.13,14.61-1.26,9.04-2.57,18.38-4.47,27.51-1.54,7.38-3.51,17.11-5.11,26.93-.15.94-.55,1.71-.9,2.4-.36.7-.66,1.3-.69,1.96-.02.55-.48,1.03-1.03.96-.55-.02-.98-.48-.96-1.03.04-1.11.5-2.01.9-2.8.31-.61.6-1.18.7-1.81,1.61-9.86,3.59-19.61,5.13-27.01,1.89-9.06,3.19-18.37,4.45-27.38.67-4.81,1.36-9.77,2.14-14.65.66-4.17,1.23-8.46,1.78-12.6.78-5.88,1.58-11.95,2.68-17.85,3.46-18.56,7.07-32.51,11.71-45.23,8.4-23.03,21-40.31,38.52-52.82,17.52-12.52,36.75-17.13,57.14-13.71,15.16,2.55,28.3,10.04,39.05,22.28,13.06,14.86,22.35,33.09,29.23,57.35,5.02,17.73,7.69,35.72,9.98,52.64,1.05,7.72,2.22,15.57,3.35,23.15,1.22,8.14,2.47,16.56,3.58,24.86,1.09,8.17,3.06,16.31,4.96,24.19,2.14,8.85,4.35,18.01,5.35,27.3,1.02,9.47,1.66,18.74-1.71,27.97-.15.41-.53.66-.94.66Z"/>
  <path d="M336.42,236.15c-4.03,0-8.15-.81-12.62-2.03-19.11-5.2-34.27-15.23-45.06-29.82-.33-.44-.23-1.07.21-1.4.44-.33,1.07-.23,1.4.21,10.66,14.42,25.05,23.93,43.97,29.08,8.19,2.23,15.13,3.04,22.37-.26,8.39-3.82,14.73-10.43,19.36-20.19,8.14-17.15,12.3-36,12.38-56.03.02-5.44-.79-11-1.58-16.37-.31-2.13-.63-4.32-.9-6.49-.31-2.52-.41-5.07-.51-7.53-.12-2.95-.24-6-.73-8.97-2.23-13.63-6.27-27.19-20.69-34.05-9.52-4.53-18.63-5.96-27.86-4.35-8.47,1.47-15.5,3.08-22.23,6.14-11.02,5.02-18.17,14.05-22.47,28.4-2.53,8.44-5.13,17.09-9.04,25.15l-.15.31c-.54,1.12-1.1,2.27-1.87,3.37l-.11.15c-2.33,3.32-3.5,4.99-5.19,5.25-1.67.25-3.23-.96-6.33-3.37l-.38-.3c-3.67-2.85-6.99-3.48-11.09-2.08-5.72,1.94-8.88,5.83-9.65,11.88-1.34,10.57,4.71,26.05,14.83,30.96,3.58,1.74,7.49,3.17,11.79,1.93.53-.15,1.08.15,1.24.68.15.53-.15,1.08-.68,1.24-4.96,1.43-9.47-.24-13.22-2.06-5.2-2.52-9.72-7.68-12.74-14.52-2.7-6.12-3.9-13.03-3.2-18.5.86-6.79,4.56-11.34,10.99-13.52,4.75-1.61,8.75-.87,12.96,2.4l.38.3c2.48,1.93,3.97,3.09,4.81,2.97.85-.13,1.98-1.74,3.85-4.42l.11-.15c.68-.97,1.18-2,1.71-3.1l.15-.31c3.84-7.91,6.42-16.49,8.91-24.78,4.51-15.02,12-24.44,23.58-29.72,6.92-3.15,14.09-4.8,22.71-6.29,9.65-1.67,19.16-.2,29.06,4.52,15.29,7.28,19.6,22.05,21.8,35.53.51,3.1.63,6.21.75,9.22.1,2.42.2,4.92.5,7.36.26,2.14.59,4.33.9,6.45.8,5.44,1.62,11.07,1.6,16.67-.08,20.33-4.31,39.47-12.57,56.88-4.85,10.21-11.5,17.13-20.34,21.16-3.74,1.7-7.38,2.4-11.1,2.4Z"/>
  <path d="M200.41,450.22c-6.12,0-12.37-1.29-18.34-3.96-15.48-6.91-27.29-18.51-38.3-37.6-8.05-13.95-12.96-29.04-14.59-44.86-1.47-14.2-2.15-30.89,3.93-46.94.2-.52.77-.78,1.29-.58.52.2.78.77.58,1.29-5.93,15.66-5.25,32.06-3.81,46.03.91,8.82,2.86,17.41,5.82,25.7.88-1.11,1.71-2.34,2.09-3.83,3.37-13.19,8.79-25.72,16.56-38.31,8.6-13.94,19.71-29.57,36.91-39.77,16.68-9.9,30.23-8.4,42.64,4.71,13.31,14.06,16.77,32.24,18.3,46.52,1.3,12.11.68,24.34-1.85,36.33-3.46,16.44-10.09,30.02-20.25,41.52-7.93,8.98-19.22,13.75-30.98,13.75ZM137.69,391.2c2.13,5.64,4.74,11.13,7.81,16.46,10.79,18.71,22.32,30.05,37.39,36.78,16.64,7.43,35.53,3.7,47.01-9.29,9.93-11.24,16.4-24.52,19.79-40.61,2.52-11.96,3.11-23.64,1.82-35.71-1.5-13.96-4.87-31.73-17.77-45.35-11.66-12.32-24.43-13.71-40.17-4.37-16.83,9.98-27.76,25.37-36.23,39.1-7.66,12.42-13,24.77-16.32,37.76-.51,2-1.65,3.59-2.7,4.88-.16.2-.39.32-.63.36Z"/>
  <path d="M1.54,728.21c-.4,0-.79-.25-.94-.65-.9-2.41-.6-4.74-.31-7,.13-.99.25-1.93.27-2.88.29-12.71.77-25.63,1.24-38.13.22-5.8.43-11.59.63-17.39.16-4.54.3-9.09.45-13.63.74-23.09,1.51-46.97,3.56-70.43l.1-1.12c1.04-11.89,2.11-24.18,5.06-36.02,6.12-24.6,17.55-42.11,34.93-53.55l.32-.21c1.02-.67,2.42-1.58,2.6-2.29,1.41-5.48,4.44-10.07,7.36-14.52,1.2-1.82,2.44-3.71,3.53-5.6,9.01-15.63,15.1-32.89,18.11-51.28,1.29-7.91,1.91-16.07,2.51-23.96.41-5.41.83-11,1.47-16.49.94-8.05,2.1-17.41,4.02-26.6,6.26-29.95,20.93-52.99,43.6-68.48,24.42-16.68,49.76-21,75.32-12.83l1.71.54c5.59,1.77,11.36,3.6,15.97,6.6,3.95,2.57,9.64,6.87,14.29,12.77,1.84,2.33,4.23,3.35,7.42,4.53,10.08,3.74,20.48,7.05,30.54,10.25,2.01.64,4.02,1.28,6.04,1.92,16.35,5.23,32.49,6.05,47.97,2.44,15.07-3.52,27.15-11.46,35.92-23.59.32-.45.95-.55,1.4-.22.45.32.55.95.22,1.4-9.06,12.53-21.54,20.73-37.09,24.36-15.83,3.7-32.33,2.87-49.03-2.48-2.01-.64-4.02-1.28-6.03-1.92-10.08-3.21-20.51-6.52-30.63-10.28-3.38-1.25-6.14-2.43-8.29-5.17-4.49-5.69-9.99-9.85-13.81-12.33-4.39-2.85-10.03-4.64-15.49-6.37l-1.71-.54c-25.29-8.08-49.36-3.97-73.58,12.58-22.54,15.4-36.53,37.4-42.77,67.24-1.9,9.11-3.06,18.41-3.99,26.42-.63,5.45-1.06,11.02-1.47,16.41-.6,7.93-1.22,16.13-2.53,24.13-3.05,18.63-9.22,36.11-18.35,51.95-1.12,1.95-2.38,3.86-3.6,5.7-2.84,4.31-5.77,8.76-7.1,13.92-.38,1.46-2.01,2.53-3.45,3.47l-.31.2c-16.94,11.15-28.09,28.28-34.09,52.36-2.91,11.7-3.98,23.91-5.01,35.71l-.1,1.12c-2.04,23.4-2.81,47.25-3.55,70.32-.15,4.54-.29,9.09-.45,13.63-.2,5.8-.42,11.6-.63,17.39-.46,12.49-.95,25.4-1.24,38.1-.02,1.04-.16,2.08-.29,3.08-.27,2.11-.53,4.1.2,6.04.19.52-.07,1.09-.58,1.29-.12.04-.23.06-.35.06Z"/>
  <path d="M501.54,271.71c-.35,0-.7-.19-.88-.52-.26-.49-.08-1.09.4-1.36,2.42-1.32,5.04-1.92,7.58-2.5,1.21-.28,2.47-.56,3.66-.92,3.04-.92,5.82-2.35,8.45-3.98-5.05-2-10.55-4.64-14.5-9.59-9.83-12.35-13.92-27.62-12.49-46.69,1.19-15.81,4.21-31.37,6.71-43.17,4.77-22.49,9.71-45.74,20.1-67.24,10.98-22.72,24.65-37.19,43.01-45.53,17.25-7.84,33.2-8.76,48.77-2.83l.44.17c4.19,1.59,9.41,3.58,11.08,8.89,1.62,5.15.97,11.35-1.75,16.58-4.08,7.85-8.73,14.71-13.82,20.39-16.71,18.64-37.17,33.89-60.79,45.3-4.08,1.97-8.15,3.41-13.21-.59-2.06-1.63-3.73-2.28-5.11-2.01-1.59.32-3.12,1.93-4.84,5.05-2.63,4.79-2.32,9.79-2,15.09.04.63.08,1.27.11,1.91.73,13.66,6.25,21.59,17.39,24.95,2.81.85,3.17,2.19,3.67,4.05l.07.27c.84,3.11.52,6.12.22,9.03-.15,1.47-.3,2.86-.31,4.27-.01,2.39,0,4.77.03,7.16.09,9.39.18,19.09-2.05,28.56-2.18,9.23-4.58,17.28-12,22.44-.62.43-1.24.87-1.87,1.31-4.49,3.16-9.12,6.44-14.76,8.14-1.25.38-2.54.67-3.79.96-2.52.58-4.89,1.12-7.07,2.3-.15.08-.32.12-.48.12ZM591.9,45.55c-8.85,0-17.96,2.16-27.49,6.49-17.91,8.14-31.27,22.3-42.03,44.58-10.28,21.28-15.2,44.41-19.94,66.78-2.49,11.73-5.5,27.21-6.68,42.9-1.39,18.54,2.55,33.35,12.06,45.29,3.95,4.96,9.49,7.38,14.83,9.44.06.02.11.05.16.08,1.25-.83,2.47-1.7,3.68-2.55.63-.44,1.25-.88,1.88-1.32,6.83-4.75,9.11-12.44,11.19-21.26,2.18-9.23,2.09-18.81,2-28.08-.02-2.4-.05-4.8-.03-7.19,0-1.51.17-3.01.32-4.46.3-2.85.58-5.54-.16-8.3l-.07-.27c-.45-1.67-.57-2.12-2.31-2.65-11.89-3.59-18.04-12.34-18.81-26.76-.03-.63-.07-1.26-.11-1.89-.33-5.34-.67-10.87,2.24-16.17,2.05-3.73,3.96-5.59,6.19-6.05,2.01-.41,4.16.35,6.74,2.4,3.82,3.02,6.62,2.52,11.1.36,23.39-11.31,43.64-26.39,60.18-44.84,4.98-5.56,9.53-12.28,13.53-19.97,2.48-4.77,3.08-10.4,1.61-15.05-1.38-4.39-5.71-6.03-9.89-7.62l-.45-.17c-6.48-2.47-13.04-3.71-19.74-3.71Z"/>
  <path d="M190.84,544.06c-9.95,0-20.62-2.3-32.64-6.97-18.67-7.25-34.6-19.47-50.01-31.29l-.3-.23c-7.35-5.64-13.66-9.91-19.86-13.46-12.29-7.02-23.97-8.8-35.71-5.43-.47.14-1.37.2-2.11-.91-.31-.46-.18-1.08.28-1.39.46-.31,1.08-.18,1.39.28.02.02.03.04.04.06,12.23-3.47,24.37-1.61,37.1,5.66,6.28,3.59,12.66,7.91,20.08,13.6l.3.23c15.29,11.73,31.11,23.86,49.52,31.01,18.23,7.08,33.26,8.61,47.3,4.81,25.29-6.85,42.89-21.9,52.3-44.74,4.77-11.59,4.35-21.59-1.28-30.58-2.71-4.33-3.93-8.43-3.72-12.55.06-1.11-.56-2.14-1.22-3.23l-.12-.2c-.28-.47-.13-1.09.35-1.37.48-.28,1.09-.13,1.37.35l.12.2c.74,1.24,1.58,2.65,1.5,4.36-.19,3.7.93,7.42,3.42,11.39,6,9.58,6.47,20.17,1.43,32.4-9.66,23.45-27.7,38.89-53.62,45.91-5.15,1.39-10.42,2.1-15.91,2.1Z"/>
  <path d="M669.54,265.21c-.13,0-.27-.03-.4-.08-.51-.22-.74-.81-.52-1.32.77-1.77,2.04-3.07,3.27-4.32,1.12-1.15,2.19-2.23,2.89-3.66,6.82-13.83,8.15-28.73,8.54-40.17.07-2.2.16-4.4.24-6.6.45-12.22.92-24.85.21-37.31-.81-14.23-1.78-29.38-4.09-44.41-2.89-18.83-7.23-32.58-14.1-44.58-8.72-15.25-18.23-23.79-30.82-27.67-4.67-1.44-8.06-1.43-11.32.03-.5.23-1.1,0-1.32-.5-.23-.5,0-1.1.5-1.32,4.71-2.11,9.08-1.24,12.73-.12,13.11,4.04,22.97,12.86,31.96,28.58,6.99,12.23,11.41,26.19,14.34,45.27,2.32,15.12,3.3,30.32,4.11,44.6.71,12.56.24,25.24-.21,37.5-.08,2.2-.16,4.4-.24,6.59-.4,11.64-1.75,26.82-8.74,40.98-.85,1.72-2.07,2.97-3.26,4.17-1.15,1.17-2.24,2.28-2.86,3.71-.16.38-.53.6-.92.6Z"/>
  <path d="M248.64,236.26c-3.88,0-7.46-1.39-10.82-4.17-.49-.4-1.63-.75-3.41-1.02-7.32-1.15-15.29-3.53-18.85-12.46-.4-1.01-1.39-1.42-3.53-1.46-9.7-.18-16.39-4.72-19.34-13.14-1.12-3.18-3.17-4.65-6.67-4.74-4.42-.12-8.91-2.5-12.31-6.52-3.74-4.42-5.56-10.08-4.85-15.14.77-5.54-1.24-8.66-4.51-11.64-5.12-4.67-6.88-10.72-5.23-17.98.95-4.18.07-7.38-2.75-10.08-.75-.72-1.23-1.6-1.7-2.45l-.12-.21c-4.55-8.3-2.91-19.38,3.81-25.76,3.93-3.73,5.15-6.79,4.2-10.54-2.81-11.15-1.43-15.17,7.42-21.53,4.95-3.55,6.89-7.08,6.69-12.19-.46-12.01,3.77-17.67,15.64-20.88,2.41-.65,3.63-1.66,4.24-3.48,2.72-8.19,8.56-12.67,17.87-13.71,4.26-.48,7.43-1.69,10.04-6.29,5.56-9.79,16.69-14,28.38-10.73,1.11.31,2.64.42,4.65-1.52,10.23-9.9,21.17-11.29,32.51-4.14,2.21,1.39,3.53,1.22,5.68.32,12.66-5.31,23.92-3.36,33.45,5.79,1.74,1.67,3.12,1.71,5.39,1.63,17.62-.61,28.62,9.54,31.39,19.23,1.47,5.14,2.56,7.99,7.96,6.85.61-.13,1.11.2,1.59.53.28.18.59.39.84.46,9.67,2.63,18.39,13.72,15.59,24.62-.44,1.69.11,2.53.98,3.62.69.86,1.63,1.53,2.62,2.24.96.68,1.95,1.39,2.75,2.31,4.97,5.68,9.2,11.48,6.33,19.96-1.62,4.8-.85,8.88,2.5,13.24,4.62,6,5.5,13.24,2.4,19.85-2.6,5.55-2.68,11.21-.25,17.81,1.35,3.69.9,8.49-1.24,13.18-1.9,4.17-4.78,8.02-8.79,11.77-1.28,1.2-1.93,2.13-1.68,3.63,1.55,9.1-1.97,16.64-10.47,22.41-4.76,3.23-7.63,7.52-9.03,13.49-.13.54-.67.87-1.2.75-.54-.13-.87-.66-.75-1.2,1.5-6.4,4.72-11.2,9.85-14.69,7.8-5.29,11.04-12.16,9.63-20.42-.43-2.5.84-4.09,2.28-5.43,3.82-3.57,6.55-7.21,8.34-11.14,1.92-4.22,2.35-8.47,1.18-11.66-2.62-7.13-2.52-13.28.32-19.35,2.76-5.91,1.97-12.39-2.18-17.78-3.75-4.88-4.65-9.68-2.81-15.1,2.52-7.47-1.2-12.57-5.95-18-.65-.75-1.5-1.36-2.41-2-1.06-.76-2.15-1.54-3.02-2.62-1.05-1.31-2.02-2.8-1.36-5.38,2.08-8.09-3.54-19.3-14.18-22.19-.56-.15-1.04-.47-1.42-.72-.09-.06-.21-.14-.29-.19-7.3,1.43-8.77-3.74-10.08-8.31-3.49-12.22-17.43-18.19-29.39-17.78-2.27.08-4.41.15-6.84-2.18-8.91-8.55-19.43-10.36-31.29-5.39-2.57,1.08-4.63,1.35-7.52-.48-10.61-6.69-20.44-5.42-30.05,3.88-2.08,2.01-4.23,2.67-6.58,2.01-8.18-2.29-19.92-1.1-26.1,9.79-3.02,5.31-6.8,6.75-11.55,7.29-8.57.96-13.72,4.88-16.2,12.36-.82,2.48-2.55,3.95-5.61,4.78-10.88,2.95-14.59,7.89-14.16,18.87.28,7.28-3.64,11.11-7.52,13.89-8.23,5.9-9.28,8.99-6.65,19.41,1.44,5.68-1.79,9.65-4.76,12.48-5.98,5.68-7.48,15.94-3.43,23.35l.12.22c.41.75.8,1.46,1.32,1.97,3.33,3.19,4.41,7.11,3.31,11.97-1.5,6.6.02,11.85,4.63,16.06,3.23,2.95,6.09,6.61,5.14,13.39-.63,4.5,1.02,9.58,4.4,13.57,3.04,3.59,6.99,5.71,10.84,5.81,4.33.12,7.11,2.11,8.5,6.08,2.69,7.67,8.57,11.64,17.49,11.8,1.29.02,4.3.08,5.35,2.72,3.18,7.98,10.2,10.11,17.31,11.22,2.23.35,3.57.8,4.37,1.46,5.2,4.3,10.77,4.85,17.54,1.75.5-.23,1.1-.01,1.33.49.23.5,0,1.1-.49,1.33-3.11,1.42-6.04,2.14-8.82,2.14ZM373.94,40.26h0Z"/>
  <path d="M767.04,648.21h-.02c-.55,0-.99-.47-.98-1.02,0-.41.09-.74.17-1.04.12-.44.18-.68,0-1.13-2.28-5.93-4.9-11.63-8.14-18.35-10.74-22.32-18.95-45.46-24.38-68.77-2.37-10.18-4.51-20.58-6.57-30.64-2.38-11.6-4.84-23.6-7.68-35.29-4.23-17.46-10.98-39.96-25.67-59.18-18.85-24.65-42.74-34.54-71.02-29.39-23.04,4.2-42.21,15.94-56.97,34.89-11.75,15.08-15.13,32.97-18.06,53.09-1.14,7.82-1.93,15.85-2.69,23.61-.53,5.35-1.07,10.88-1.73,16.31-1.47,12.2-3.02,24.5-4.6,36.56-1.85,14.14-2.56,25.84-2.23,36.82.23,7.81,1.71,15.81,4.51,24.47.17.53-.12,1.09-.64,1.26-.52.17-1.09-.12-1.26-.64-2.86-8.84-4.37-17.03-4.61-25.03-.33-11.09.38-22.89,2.25-37.14,1.58-12.05,3.12-24.34,4.6-36.54.65-5.4,1.2-10.92,1.72-16.26.77-7.79,1.56-15.84,2.71-23.71,2.97-20.41,6.41-38.56,18.46-54.03,15.07-19.35,34.65-31.33,58.19-35.62,29.07-5.3,53.62,4.84,72.97,30.14,14.92,19.52,21.75,42.28,26.03,59.92,2.84,11.73,5.31,23.74,7.69,35.36,2.06,10.05,4.2,20.44,6.56,30.59,5.4,23.17,13.56,46.16,24.24,68.35,3.26,6.77,5.9,12.51,8.2,18.5.4,1.05.21,1.8.06,2.35-.06.22-.1.4-.11.57,0,.55-.46.98-1,.98Z"/>
  <path d="M340.04,487.21c-.29,0-.58-.13-.78-.38-11.27-14.11-10.45-33.57,2-47.33,2.38-2.63,4.15-5.76,5.42-9.58,1.43-4.31.26-8.21-.98-12.33-.21-.7-.42-1.4-.62-2.11-.22-.8-.46-1.6-.7-2.4-1.26-4.19-2.55-8.52-1.73-13.04,1.64-8.93,5.36-17.33,11.06-24.96,8.66-11.6,14.36-22.77,17.41-34.12,6.04-22.46,16.9-40.31,33.21-54.57,12.07-10.56,25.31-17.49,40.47-21.19,11.12-2.71,22.55-2.7,34.96.03,3.46.76,6.84,1.89,10.12,2.98,3.37,1.12,6.86,2.28,10.37,3.02.54.11.89.64.77,1.18s-.64.89-1.18.77c-3.63-.76-7.17-1.94-10.59-3.08-3.22-1.07-6.56-2.18-9.92-2.92-12.1-2.67-23.24-2.68-34.06-.04-14.85,3.62-27.81,10.41-39.63,20.75-16,14-26.66,31.53-32.59,53.59-3.12,11.61-8.92,22.99-17.74,34.8-5.51,7.38-9.11,15.5-10.69,24.13-.74,4.04.49,8.14,1.67,12.1.24.81.49,1.62.71,2.43.19.7.4,1.39.61,2.08,1.27,4.24,2.59,8.63.96,13.54-1.35,4.09-3.26,7.45-5.83,10.29-11.96,13.22-12.74,31.2-1.92,44.74.34.43.27,1.06-.16,1.41-.18.15-.4.22-.62.22Z"/>
  <path d="M456.04,786.21c-.53,0-.97-.42-1-.95-.33-6.75.81-13.42,1.92-19.87.27-1.6.55-3.2.8-4.8,2.16-13.69,4.34-25.66,6.67-36.61,4.43-20.84,9.71-36.35,17.11-50.29,13.88-26.13,37.98-37.53,59.73-45.23,4.74-1.68,9.75-2.76,14.59-3.8,4.43-.96,9.02-1.94,13.37-3.39,8.66-2.87,16.73-6.21,20.43-15.41.65-1.62,1.08-3.35,1.49-5.03.4-1.64.82-3.33,1.45-4.97.2-.52.78-.77,1.29-.57.52.2.77.78.57,1.29-.59,1.52-.97,3.08-1.38,4.73-.43,1.75-.88,3.55-1.58,5.3-4.02,9.99-12.54,13.54-21.66,16.56-4.45,1.48-9.09,2.48-13.58,3.44-4.78,1.03-9.72,2.1-14.34,3.73-21.39,7.57-45.08,18.75-58.63,44.28-7.31,13.77-12.53,29.12-16.92,49.77-2.32,10.92-4.5,22.86-6.65,36.51-.25,1.61-.53,3.22-.81,4.83-1.09,6.34-2.21,12.9-1.89,19.44.03.55-.4,1.02-.95,1.05-.02,0-.03,0-.05,0Z"/>
  <path d="M604.75,597.74c-4.25,0-8.25-.6-11.95-1.81-11.95-3.89-20.79-12.4-26.28-25.29-5.65-13.26-8.95-26.79-10.09-41.35-1.37-17.49-1.05-31.87,1.01-45.26,3.22-20.94,15.49-36.73,38.61-49.7.48-.27,1.09-.1,1.36.38.27.48.1,1.09-.38,1.36-22.84,12.82-34.44,27.7-37.61,48.26-2.04,13.23-2.35,27.47-1,44.79,1.12,14.34,4.37,27.66,9.94,40.72,5.25,12.33,13.69,20.46,25.06,24.17,6.79,2.21,14.66,2.28,23.38.2,19.57-4.67,35.37-14.8,46.95-30.11.65-.86,1.13-1.87,1.64-2.93.95-1.98,1.93-4.02,4.13-5.34.47-.28,1.09-.13,1.37.34.28.47.13,1.09-.34,1.37-1.68,1.01-2.49,2.7-3.35,4.49-.53,1.1-1.08,2.24-1.85,3.27-11.87,15.69-28.04,26.07-48.08,30.85-4.38,1.04-8.56,1.57-12.52,1.57Z"/>
  <path d="M881.17,616.21c-.55,0-1.09,0-1.63,0-.55,0-1-.45-1-1s.45-1,1-1h0c17.73.04,38.65-.31,59.38-2.96,4.05-.52,4.4-.94,4.16-4.98-.23-3.85-.46-7.7-.69-11.55-.58-9.82-1.18-19.97-1.86-29.94-.43-6.33-1.07-14.66-2.2-22.91-1.46-10.7-3-21.16-5.79-31.39-3.65-13.39-8.55-27.27-19.66-38.11-10.86-10.6-24.04-16.59-37.72-22.29-5.92-2.47-12.07-4.7-18.01-6.86-9.15-3.32-18.62-6.76-27.55-11.16-4.18-2.06-9.38-4.62-12.07-10.39-4.14-8.86-5.65-17.88-4.61-27.58.16-1.45.4-2.92.64-4.33.6-3.55,1.16-6.91.48-10.36-.11-.54.25-1.07.79-1.17.55-.11,1.07.25,1.17.79.75,3.81.13,7.5-.47,11.08-.23,1.38-.47,2.82-.62,4.21-1,9.33.45,18,4.43,26.52,2.22,4.76,6.19,7,11.14,9.44,8.83,4.35,18.24,7.77,27.35,11.07,5.96,2.17,12.13,4.41,18.1,6.89,13.87,5.78,27.23,11.86,38.34,22.71,11.45,11.17,16.47,25.35,20.19,39.01,2.82,10.35,4.37,20.88,5.84,31.65,1.13,8.3,1.77,16.67,2.21,23.04.68,9.98,1.28,20.14,1.86,29.96.23,3.85.45,7.7.69,11.55.31,5.11-.8,6.43-5.9,7.08-20.21,2.58-40.56,2.98-58,2.98Z"/>
  <path d="M555.54,453.71c-.17,0-.34-.04-.5-.13-10.07-5.76-13.61-15.94-9.48-27.23,1.19-3.24,2.84-6.26,4.44-9.17,1.23-2.24,2.49-4.56,3.51-6.91,2.46-5.71,3.79-10.68,2.27-16.35-1.23-4.56-3.05-8.71-5.58-12.67-5.54-8.69-7.7-16.84-6.81-25.65,1.04-10.22.09-19.83-2.84-28.55-3.01-8.96-7.24-17.88-12.94-27.27-6.85-11.29-14.31-18.69-23.47-23.28-.25-.12-.54-.24-.84-.37-1.64-.68-4.69-1.95-3.47-5.72.17-.53.74-.81,1.26-.64.53.17.81.73.64,1.26-.59,1.82.26,2.39,2.34,3.25.35.15.68.28.97.43,9.51,4.77,17.22,12.41,24.28,24.03,5.77,9.52,10.07,18.57,13.12,27.67,3.02,9,4.01,18.88,2.94,29.39-.85,8.34,1.22,16.08,6.5,24.37,2.64,4.14,4.54,8.46,5.82,13.23,1.77,6.59-.09,12.38-2.37,17.66-1.05,2.44-2.34,4.8-3.59,7.08-1.56,2.85-3.18,5.8-4.31,8.9-3.83,10.45-.69,19.49,8.6,24.8.48.27.65.89.37,1.37-.18.32-.52.5-.87.5Z"/>
  <path d="M606.52,241.92c-2.17,0-4.39-.17-6.65-.5-13.95-2.04-26.32-8.74-38.94-21.08-6.19-6.05-11.31-13.37-15.22-21.74l-.19-.41c-.59-1.29-1.11-2.4-2.1-3.2-.43-.35-.5-.98-.15-1.41.35-.43.98-.5,1.41-.15,1.36,1.1,2.03,2.53,2.67,3.92l.19.4c3.81,8.16,8.79,15.27,14.8,21.16,12.3,12.03,24.32,18.56,37.83,20.54,10.19,1.49,19.27-.52,27.79-6.14,7.78-5.14,13.87-12.77,19.18-24.03,11.7-24.83,13.59-51.78,14.45-75.1.04-1.22-.45-1.68-1.53-2.68l-.13-.12c-14.53-13.53-25.93-28.91-33.87-45.7-.64-1.36-1.11-2.79-1.56-4.18-.8-2.45-1.55-4.76-3.2-6.63-.36-.42-.32-1.05.09-1.41.41-.37,1.05-.32,1.41.09,1.92,2.19,2.77,4.8,3.6,7.34.45,1.39.88,2.69,1.47,3.94,7.83,16.56,19.08,31.73,33.43,45.09l.13.12c1.15,1.07,2.24,2.08,2.16,4.22-.87,23.51-2.79,50.71-14.64,75.88-5.47,11.6-11.79,19.5-19.88,24.85-7.05,4.65-14.47,6.95-22.53,6.95Z"/>
  <path d="M475.23,453.7c-12.56,0-22.99-6.33-31.71-12.79-6.34-4.7-15.36-12.23-20.39-23.29-.23-.5,0-1.1.5-1.32.5-.23,1.1,0,1.32.5,3.68,8.1,9.96,15.25,19.76,22.51,9.84,7.29,21.88,14.41,36.65,11.87.89-.15,1.78-.27,2.68-.39,2.66-.35,5.18-.69,7.59-1.89,7.24-3.61,12.53-7.82,16.66-13.25,11.22-14.74,16.89-31.37,16.84-49.43,0-2.23,0-4.48,0-6.72.04-11.23.07-22.85-1.6-34.14-1.07-7.24-2.66-14.6-9.09-18.05-10.3-5.54-18.09-13.43-23.79-24.13-.26-.49-.08-1.09.41-1.35.49-.26,1.09-.08,1.35.41,5.51,10.34,13.03,17.96,22.97,23.31,7.25,3.89,9.02,12.12,10.12,19.52,1.7,11.44,1.66,23.13,1.62,34.44,0,2.24-.01,4.48,0,6.71.05,18.25-5.92,35.76-17.25,50.64-4.32,5.68-9.84,10.07-17.36,13.83-2.71,1.35-5.51,1.73-8.22,2.09-.87.12-1.74.23-2.6.38-2.22.38-4.38.56-6.47.56Z"/>
  <path d="M296.21,667.39c-7.97,0-16.46-.41-25.76-1.23-4.6-.41-7.65-3.81-7.96-8.88-.13-2.13.2-4.18.51-6.16.22-1.36.42-2.65.49-3.96.78-15.22,2.54-30.24,4.94-48.09,2.51-18.68,5.85-34.91,10.21-49.62,6.04-20.38,14.14-33.8,26.27-43.5,10.27-8.22,22.4-14.85,38.17-20.88,6.42-2.45,13.04-4.56,19.45-6.6,6.98-2.22,14.19-4.51,21.1-7.25,14.58-5.77,22.38-14.81,23.83-27.63l.08-.74c1.21-10.67,2.45-21.69,1.94-32.59-.05-1.09.16-2.14.37-3.16.26-1.29.5-2.5.11-3.44-.25-.59-.65-.64-2.11-.55-1.3.08-2.92.19-4.15-1.09-.1-.07-.59-.29-.92-.43-.42-.19-.86-.38-1.22-.58-13.66-8-18.35-29.33-9.84-44.75,1.49-2.71,3.52-4.42,5.86-4.96,2.46-.57,5.23.17,8.01,2.12,1.06.74,1.91,1.71,2.74,2.64l.44.49c2.19,2.43,4.53,3.7,6.94,3.78,2.39.07,4.81-1.03,7.17-3.3,7.67-7.4,17.08-13.36,28.78-18.23,10.01-4.17,18.76-10.13,26.74-18.22,3.48-3.53,5.56-7.71,7.77-12.14.94-1.89,1.92-3.85,3-5.73.28-.48.89-.64,1.37-.37.48.28.64.89.37,1.37-1.05,1.82-2.02,3.75-2.94,5.62-2.18,4.37-4.43,8.9-8.14,12.65-8.17,8.29-17.14,14.39-27.4,18.66-11.46,4.77-20.67,10.6-28.16,17.82-2.76,2.66-5.65,3.96-8.62,3.86-2.93-.1-5.82-1.63-8.36-4.44l-.45-.5c-.79-.88-1.53-1.72-2.4-2.33-2.3-1.62-4.51-2.24-6.41-1.81-1.8.41-3.33,1.75-4.56,3.98-8.01,14.52-3.67,34.57,9.1,42.05.25.15.63.31,1,.48.76.33,1.25.55,1.55.87.55.57,1.35.57,2.59.49,1.37-.09,3.25-.21,4.08,1.77.64,1.5.32,3.08.01,4.61-.19.94-.37,1.83-.33,2.67.52,11.06-.74,22.17-1.95,32.91l-.08.74c-1.54,13.62-9.74,23.19-25.08,29.26-6.97,2.76-14.22,5.06-21.23,7.29-6.38,2.03-12.98,4.13-19.34,6.56-15.57,5.96-27.53,12.5-37.64,20.58-11.79,9.43-19.69,22.54-25.61,42.51-4.33,14.61-7.65,30.74-10.14,49.31-2.4,17.81-4.15,32.78-4.93,47.93-.07,1.42-.3,2.82-.51,4.17-.31,1.96-.61,3.81-.49,5.72.25,4.07,2.54,6.69,6.14,7.01,17.94,1.59,32.82,1.63,46.81.14,3.69-.39,7.45-.29,11.1-.19,1.64.05,3.34.09,5,.09.55,0,1,.45,1,1s-.45,1-1,1c-1.69,0-3.4-.05-5.06-.09-3.58-.1-7.27-.2-10.83.18-6.86.73-13.92,1.1-21.44,1.1Z"/>
  <path d="M75.04,730.21s-.08,0-.13,0c-.55-.07-.94-.57-.87-1.12.74-5.95.82-12.07.9-17.98.05-3.76.1-7.64.32-11.47.3-5.29.51-10.7.71-15.92.22-5.76.45-11.72.8-17.55.64-10.56.92-21.31,1.2-31.71.31-11.74.62-23.89,1.47-35.82.34-4.85.32-9.82.3-14.63-.02-4.87-.04-9.9.31-14.86.04-.55.52-.97,1.07-.93.55.04.97.52.93,1.07-.35,4.88-.33,9.88-.31,14.71.02,4.85.04,9.86-.31,14.78-.84,11.89-1.16,24.01-1.46,35.74-.27,10.42-.55,21.18-1.2,31.78-.35,5.81-.58,11.76-.8,17.5-.2,5.24-.41,10.65-.71,15.96-.22,3.78-.27,7.64-.31,11.38-.08,5.97-.15,12.14-.91,18.2-.06.51-.49.88-.99.88Z"/>
  <path d="M185.96,498.11c-19.06,0-35.2-8.83-49.92-18.66-5.33-3.56-10.32-7.75-15.15-11.8-1.48-1.25-2.97-2.49-4.46-3.72-2.17-1.79-4.18-3.63-4.87-6.5-.13-.54.2-1.08.74-1.21.54-.12,1.08.2,1.21.74.55,2.28,2.22,3.8,4.19,5.42,1.5,1.23,2.99,2.48,4.47,3.73,4.79,4.02,9.74,8.17,14.97,11.67,16.83,11.24,35.54,21.15,58.26,17.57,8.66-1.36,15.71-3.69,21.56-7.14,17.12-10.07,29.13-26.04,36.71-48.81,5.21-15.63,8.45-32.21,9.65-49.3,1.1-15.76-.13-32.33-3.68-49.23-3.67-17.51-9.21-32.29-16.93-45.2-.19-.31-.47-.63-.77-.97-.86-.96-2.04-2.28-1.36-4.34.17-.52.74-.81,1.26-.63.52.17.81.74.63,1.26-.3.91.12,1.44.95,2.37.35.39.71.8,1,1.27,7.83,13.1,13.45,28.09,17.17,45.81,3.58,17.08,4.83,33.83,3.72,49.78-1.21,17.25-4.49,34.01-9.75,49.79-7.75,23.25-20.04,39.57-37.6,49.9-6.07,3.57-13.35,5.99-22.26,7.39-3.34.52-6.59.77-9.76.77Z"/>
  <path d="M807.04,791.21c-.13,0-.26-.02-.38-.08-.44-.18-.68-.65-.6-1.1,0,0-.01-.01-.02-.02-.2-.25-.53-.66-.53-1.29-.23-26.47-1.84-50.48-4.92-73.38-1.89-14.08-4.73-25.61-8.94-36.28-5.22-13.25-14.26-23.72-27.63-32.02-11.05-6.85-23.46-11.06-35.45-15.12-2.78-.94-5.56-1.88-8.33-2.86-1.03-.36-2.11-.7-3.15-1.02-4.41-1.36-8.98-2.76-12.45-7.12-9.34-11.73-14.05-26.09-14.83-45.18-.14-3.43-.3-6.86-.47-10.29-.51-10.56-1.03-21.49-.8-32.26.27-12.29-4.54-23.11-14.27-32.15-11.34-10.53-24.55-18.78-38.23-27l-2.64-1.58c-9.82-5.88-19.98-11.95-28.04-20.61-4.17-4.48-8.48-10.07-8.82-17.58-.03-.55.4-1.02.95-1.04.55-.04,1.02.4,1.04.95.32,6.87,4.37,12.1,8.29,16.31,7.87,8.45,17.9,14.45,27.6,20.25l2.65,1.59c13.77,8.28,27.08,16.59,38.56,27.25,10.17,9.45,15.19,20.78,14.91,33.66-.23,10.71.29,21.59.8,32.12.17,3.44.33,6.87.47,10.3.76,18.65,5.33,32.64,14.4,44.02,3.09,3.88,7.16,5.13,11.47,6.46,1.06.33,2.16.66,3.23,1.04,2.76.97,5.54,1.91,8.31,2.85,12.1,4.1,24.62,8.34,35.87,15.31,13.75,8.53,23.05,19.32,28.44,32.99,4.26,10.82,7.14,22.5,9.06,36.75,3.09,22.99,4.7,47.07,4.93,73.63,0-.03.06.02.1.07.22.28.73.92.36,1.82-.16.39-.53.62-.92.62ZM806.14,790.14h.01-.01Z"/>
  <path d="M453.41,515.82c-7.41,0-15.1-.98-23.04-2.94-23.67-5.84-41.57-18.34-53.18-37.15-.29-.47-.14-1.09.33-1.38.47-.29,1.09-.15,1.38.33,11.33,18.35,28.81,30.55,51.96,36.26,26.94,6.65,50.83,1.75,71.02-14.56,4.56-3.68,9.4-8.39,10.68-15.36.1-.54.62-.9,1.17-.8.54.1.9.62.8,1.17-1.4,7.61-6.55,12.63-11.39,16.55-14.74,11.91-31.4,17.88-49.72,17.88Z"/>
  <path d="M625.23,661.4c-7.77,0-16.82-.93-26-3.86-13.59-4.34-24.05-11.99-31.1-22.73-2.22-3.38-3.3-6.87-4.06-9.85-.14-.54.19-1.08.72-1.22.54-.13,1.08.18,1.22.72.72,2.82,1.74,6.12,3.79,9.25,4.71,7.18,23.49,30.22,67.12,24.99,10.75-1.29,21.37-5.12,31.56-11.4,9.26-5.7,20.77-13.93,27.68-27.05.26-.49.86-.67,1.35-.42.49.26.68.86.42,1.35-7.13,13.55-18.92,21.99-28.4,27.83-10.44,6.43-21.33,10.36-32.37,11.68-3.41.41-7.46.71-11.93.71Z"/>
  <path d="M589.6,309.8c-6.23,0-12.79-.69-19.76-2.08-17.39-3.46-32.23-9.22-45.37-17.63-.14-.06-.66,0-.98.04-.33.04-.65.07-.95.07-.55,0-1-.45-1-1s.45-1,1-1c.23,0,.47-.03.72-.06.74-.09,1.58-.18,2.29.27,12.93,8.27,27.54,13.94,44.68,17.35,15.26,3.03,28.51,2.69,40.5-1.06,18.21-5.69,31.47-17.1,39.41-33.92.24-.5.83-.71,1.33-.48.5.24.71.83.48,1.33-8.19,17.34-21.85,29.11-40.62,34.98-6.81,2.13-14.01,3.19-21.72,3.19Z"/>
  <path d="M763.24,405.43c-.58,0-1.16,0-1.74-.03-11.67-.35-20.68-6.03-27.96-11.54-7.96-6.03-12.25-15.04-15.96-23.75-5.41-12.71-8.53-26.4-9.54-41.84-.84-12.82-.84-25.48,0-37.63.04-.55.52-.96,1.07-.93.55.04.97.52.93,1.07-.83,12.06-.83,24.63,0,37.37,1,15.21,4.07,28.69,9.39,41.19,3.6,8.46,7.75,17.2,15.32,22.94,7.03,5.32,15.71,10.81,26.81,11.14,13.27.4,25.63-3.9,37.76-13.14,8.32-6.34,16.93-12.89,20.79-23.4.53-1.45.85-3.06,1.16-4.61.4-2.01.81-4.08,1.69-5.83,1.16-2.3,3.64-2.83,6.05-3.35,1.61-.35,3.27-.7,4.53-1.57,8.13-5.62,12.79-13.83,13.87-24.41.95-9.26-3.98-16.31-13.17-18.85-1.01-.28-1.9-.46-2.49.16-.38.4-1.02.41-1.41.02-.4-.38-.41-1.02-.03-1.41,1.47-1.52,3.49-.96,4.47-.7,10.06,2.78,15.67,10.82,14.63,20.98-1.14,11.18-6.1,19.88-14.73,25.85-1.58,1.1-3.53,1.51-5.25,1.88-2.12.46-3.96.85-4.69,2.29-.76,1.51-1.13,3.36-1.52,5.33-.32,1.63-.66,3.32-1.25,4.91-4.07,11.06-12.91,17.79-21.46,24.3-11.98,9.12-24.2,13.57-37.29,13.57Z"/>
  <path d="M194.54,463.21h-.02c-4.23-.07-7.52-.34-10.68-.89-11.67-2.03-22.52-5.83-32.26-11.31-16.45-9.26-29.53-22.49-38.87-39.35-.22-.4-.45-.8-.68-1.21-1.93-3.41-3.93-6.94-3.5-11.34.05-.55.54-.95,1.09-.9.55.05.95.54.9,1.09-.37,3.77,1.38,6.88,3.25,10.16.23.41.46.82.69,1.23,9.16,16.52,21.98,29.5,38.1,38.57,9.54,5.36,20.17,9.09,31.62,11.08,3.05.53,6.25.79,10.37.86.55,0,.99.46.98,1.02,0,.55-.46.98-1,.98Z"/>
  <path d="M879.52,711.2c-.18,0-.36-.05-.53-.16-.88-.59-.94-1.35-.96-1.71-.19-2.57-.42-5.09-.64-7.62-.58-6.55-1.17-13.32-1.17-20,0-1.84-.54-3.5-1.11-5.26-.64-1.96-1.29-3.98-1.18-6.3.2-4.05.43-8.1.66-12.14.25-4.29.5-8.58.7-12.86.24-5.12.67-10.3,1.08-15.31.65-7.9,1.32-16.06,1.28-24.12-.03-6.26.49-12.63,1-18.79l.02-.29c.98-11.96,1.5-24.16,2.01-35.95.26-6.07.53-12.36.86-18.53.03-.55.52-.97,1.05-.95.55.03.98.5.95,1.05-.33,6.17-.6,12.44-.86,18.51-.51,11.81-1.03,24.02-2.01,36.03l-.02.28c-.5,6.12-1.02,12.44-.99,18.62.04,8.15-.64,16.36-1.29,24.29-.41,5-.84,10.16-1.08,15.25-.2,4.29-.45,8.58-.7,12.88-.23,4.04-.47,8.08-.66,12.13-.1,1.95.48,3.71,1.08,5.58.6,1.83,1.21,3.72,1.21,5.88,0,6.6.58,13.32,1.16,19.83.22,2.53.45,5.07.64,7.6,0,.1,0,.16.02.21.46.31.61.94.31,1.4-.2.29-.51.46-.83.46Z"/>
  <path d="M931.54,711.21s-.04,0-.06,0c-.55-.03-.97-.5-.94-1.05.13-2.27-.16-4.61-.43-6.86-.22-1.82-.45-3.7-.47-5.57-.12-10.7-.58-21.57-1.02-32.09-.56-13.24-1.14-26.93-1.05-40.43.02-3.44-.46-6.92-.93-10.27l-.08-.58c-.08-.55.31-1.05.85-1.13.54-.08,1.05.31,1.13.85l.08.58c.48,3.43.97,6.97.95,10.56-.08,13.45.49,27.12,1.05,40.33.44,10.53.9,21.42,1.03,32.15.02,1.76.23,3.51.46,5.35.29,2.34.58,4.76.44,7.22-.03.53-.47.94-1,.94Z"/>
  <path d="M797.75,290.4c-.52,0-1.06-.13-1.6-.39-2.67-1.31-5.46-1.53-8.41-1.77l-1.29-.11c-6.64-.59-10.99-4.17-12.92-10.61-1.38-4.59-2.19-9.32-2.98-13.9-.33-1.91-.65-3.81-1.02-5.71-.48-2.47-.7-4.99-.91-7.43-.29-3.32-.59-6.75-1.55-9.98-.16-.53.14-1.09.67-1.24.53-.16,1.09.15,1.24.67,1.02,3.42,1.32,6.95,1.62,10.37.21,2.39.42,4.86.88,7.23.37,1.91.7,3.83,1.03,5.75.78,4.52,1.58,9.19,2.92,13.66,1.7,5.67,5.36,8.67,11.18,9.2l1.27.11c3,.25,6.11.5,9.12,1.97.45.22.88.25,1.13.08.32-.21.47-.77.43-1.53-.07-1.21-.11-2.41-.16-3.62-.07-1.92-.15-3.91-.32-5.86-.21-2.32-.16-4.68-.12-6.96.09-4.8.17-9.34-1.85-13.71-.23-.5-.01-1.1.49-1.33.5-.23,1.1-.01,1.33.49,2.21,4.78,2.12,9.76,2.03,14.58-.04,2.23-.08,4.53.12,6.74.18,2,.25,4.01.33,5.96.04,1.19.09,2.39.16,3.58.12,2.04-.77,2.95-1.32,3.31-.45.3-.96.45-1.51.45Z"/>
  <path d="M328.54,747.21s-.05,0-.08,0c-.55-.04-.96-.52-.92-1.07.5-6.55.98-13.1,1.47-19.66.76-10.28,1.55-20.91,2.38-31.36.55-6.85,1-13.84,1.44-20.6.18-2.8.36-5.59.55-8.39.26-3.93.57-7.86.88-11.79.57-7.26,1.16-14.76,1.45-22.16.25-6.43.76-12.94,1.25-19.05.17-2.1.36-4.19.55-6.29.65-7.07,1.32-14.38,1.02-21.58-.02-.55.41-1.02.96-1.04.56-.03,1.02.41,1.04.96.3,7.34-.37,14.71-1.03,21.85-.19,2.09-.38,4.18-.55,6.27-.49,6.09-.99,12.58-1.25,18.97-.29,7.44-.88,14.96-1.45,22.24-.31,3.92-.61,7.85-.88,11.77-.19,2.79-.37,5.59-.55,8.38-.44,6.77-.89,13.76-1.44,20.63-.83,10.45-1.62,21.07-2.38,31.35-.48,6.55-.97,13.11-1.47,19.66-.04.52-.48.92-1,.92Z"/>
  <path d="M268.54,745.21h0c-.55,0-1-.45-1-1,0-4.74,0-9.48-.01-14.22-.03-20.92-.07-42.55,1.01-63.83.03-.55.51-.98,1.05-.95.55.03.98.5.95,1.05-1.08,21.22-1.04,42.83-1.01,63.72,0,4.74.02,9.49.01,14.23,0,.55-.45,1-1,1Z"/>
  <path d="M755.18,285.16c-1.19,0-1.98-1.11-2.47-1.81-.13-.19-.26-.38-.4-.53-2.47-2.91-3.24-6.44-3.99-9.86-.19-.86-.38-1.72-.59-2.56-.77-3.02-1.16-6.14-1.54-9.15-.43-3.42-.88-6.96-1.88-10.34-.47-1.59.04-3.34.53-5.04.36-1.23.73-2.5.7-3.66,0-.55.43-1.01.98-1.02.57-.02,1.01.43,1.02.98.03,1.46-.38,2.88-.78,4.26-.43,1.48-.83,2.88-.53,3.91,1.05,3.53,1.5,7.15,1.95,10.65.37,2.96.76,6.01,1.5,8.91.22.86.41,1.74.61,2.62.69,3.18,1.41,6.46,3.56,8.99.17.2.33.43.5.67.2.28.66.93.85.96.85-.26,1.34-1.45,1.27-2.36-.25-3,.33-5.87.88-8.65.14-.7.28-1.4.4-2.08,2.58-14.4,5.97-26.9,10.36-38.22.2-.52.78-.77,1.29-.57.51.2.77.78.57,1.29-4.34,11.2-7.7,23.58-10.26,37.85-.13.7-.27,1.41-.41,2.12-.53,2.64-1.07,5.37-.85,8.09.14,1.74-.81,3.87-2.65,4.43-.22.07-.43.1-.63.1Z"/>
  <path d="M729.04,790.21c-.43,0-.83-.28-.96-.72-.29-1.02,0-1.9.24-2.6.14-.42.27-.81.27-1.17-.03-12.06.48-24.3.98-36.13.46-10.94.93-22.25.97-33.38,0-.55.45-1,1-1h0c.55,0,1,.45,1,1-.04,11.17-.52,22.5-.98,33.45-.49,11.81-1,24.03-.98,36.04,0,.69-.2,1.28-.37,1.81-.21.62-.33,1.02-.21,1.41.15.53-.15,1.08-.68,1.24-.09.03-.19.04-.28.04Z"/>
  <path d="M496.04,788.21c-.09,0-.19-.01-.28-.04-.53-.15-.84-.71-.68-1.24.1-.33-.02-.68-.21-1.23-.21-.58-.46-1.3-.34-2.14.88-6.13,1.4-12.42,1.89-18.51.52-6.4,1.06-13.02,2.03-19.51.5-3.33.94-6.73,1.37-10.02.88-6.75,1.79-13.72,3.24-20.52.11-.54.65-.89,1.19-.77.54.12.88.65.77,1.19-1.44,6.72-2.34,13.66-3.21,20.36-.43,3.3-.87,6.71-1.38,10.06-.96,6.42-1.5,13.01-2.02,19.38-.5,6.11-1.01,12.44-1.91,18.63-.05.35.09.74.25,1.18.24.66.53,1.49.25,2.46-.13.44-.53.72-.96.72Z"/>
  <path d="M705.54,622.71s-.07,0-.11,0c-8.25-.92-15.49-4.05-21.5-9.29-11.5-10.03-13.79-23.77-14.5-34.63-.21-3.21.11-6.42.41-9.52.44-4.42.85-8.6-.11-12.87-.21-.91-.02-2.43.73-3.56.57-.86,1.4-1.41,2.4-1.59,4.11-.73,7.93-2.53,11.62-4.27,1.21-.57,2.42-1.14,3.64-1.68.51-.22,1.1,0,1.32.51.22.51,0,1.1-.51,1.32-1.21.53-2.4,1.09-3.6,1.66-3.81,1.8-7.76,3.66-12.13,4.43-.46.08-.81.32-1.08.72-.47.71-.52,1.68-.45,2.01,1.03,4.58.58,9.12.15,13.51-.3,3.02-.61,6.14-.41,9.19.68,10.47,2.87,23.71,13.82,33.25,5.7,4.97,12.57,7.93,20.41,8.81.55.06.94.56.88,1.11-.06.51-.49.89-.99.89Z"/>
  <path d="M768.59,493.32c-1.3,0-2.21-1.22-3.85-3.55-3.3-4.7-6.74-9.43-10.06-14-7.14-9.82-14.53-19.97-21.01-30.53-1.1-1.8-2.06-3.7-2.99-5.53-1.61-3.2-3.14-6.22-5.4-8.86-.36-.42-.31-1.05.11-1.41.42-.36,1.05-.31,1.41.11,2.42,2.82,4.07,6.09,5.66,9.25.91,1.8,1.85,3.66,2.91,5.39,6.44,10.49,13.8,20.61,20.92,30.4,3.33,4.58,6.77,9.31,10.08,14.03.68.97,1.82,2.59,2.24,2.7.36-.12,1.48-1.79,2.08-2.68,5.07-7.59,11.14-14.52,17-21.22,2.52-2.88,5.12-5.85,7.61-8.83,2.78-3.34,5.73-6.63,8.59-9.8,6.08-6.77,12.36-13.77,17.31-21.61.3-.47.91-.61,1.38-.31.47.29.61.91.31,1.38-5.04,7.98-11.38,15.05-17.52,21.88-2.84,3.16-5.78,6.44-8.54,9.75-2.5,3-5.11,5.98-7.64,8.87-5.82,6.65-11.85,13.53-16.84,21.01-1.56,2.34-2.43,3.56-3.74,3.57,0,0-.02,0-.02,0Z"/>
  <path d="M399.54,291.71c-.15,0-.3-.03-.44-.1-.44-.22-.81-.49-1.17-.75-.42-.31-.77-.57-1.18-.7-4.7-1.43-9.52-2.81-14.17-4.13-8.37-2.39-17.02-4.86-25.41-7.77-12.05-4.18-18.88-10.8-21.48-20.82-1.83-7.05-1.87-14.26-.13-21.46.13-.54.67-.87,1.21-.74.54.13.87.67.74,1.21-1.67,6.87-1.62,13.76.12,20.48,2.42,9.32,8.84,15.49,20.2,19.44,8.34,2.89,16.96,5.36,25.3,7.74,4.66,1.33,9.48,2.71,14.2,4.14.74.22,1.3.64,1.79,1,.3.22.58.43.86.57.5.24.7.84.45,1.34-.17.35-.53.56-.9.56Z"/>
  <path d="M704.54,290.71c-.48,0-.91-.35-.99-.84-.09-.55.28-1.06.83-1.15,1.79-.29,3.58-.34,5.32-.38,2.61-.07,5.07-.13,7.58-.94,11.84-3.83,16.44-13.61,21.3-23.96l.07-.15c.67-1.42,1.12-2.92,1.6-4.5.8-2.64,1.63-5.37,3.52-7.71.35-.43.97-.5,1.41-.15.43.35.5.98.15,1.41-1.64,2.03-2.38,4.46-3.16,7.03-.48,1.58-.98,3.22-1.7,4.77l-.07.15c-4.83,10.29-9.83,20.92-22.5,25.02-2.78.9-5.51.97-8.14,1.04-1.75.05-3.39.09-5.05.36-.05,0-.11.01-.16.01Z"/>
  <path d="M223.04,273.96c-.44,0-.84-.29-.96-.74-.15-.53.17-1.08.7-1.23.4-.11.72-.38,1.14-.73.46-.38.98-.82,1.71-1.11,5.78-2.3,10.91-4.5,15.25-8.23,9.27-7.95,14.47-17.54,15.9-29.31,1.25-10.27,2.4-20.33,2.75-30.44.05-1.5.05-3.04.05-4.53,0-3.13,0-6.38.48-9.58.08-.55.59-.93,1.14-.84.55.08.92.59.84,1.14-.46,3.06-.46,6.22-.46,9.28,0,1.51,0,3.06-.05,4.6-.35,10.19-1.51,20.29-2.76,30.61-1.49,12.29-6.92,22.3-16.58,30.59-4.57,3.92-10.09,6.29-15.81,8.56-.43.17-.78.47-1.16.78-.51.42-1.08.9-1.9,1.13-.09.02-.18.04-.26.04Z"/>
  <path d="M829.04,323.21c-.09,0-.18-.01-.27-.04-.53-.15-.84-.7-.69-1.23,3.55-12.73,1.55-18.54-8.58-24.86-9.31-5.82-13.7-14.93-17.73-24.54-.64-1.53-1.54-2.57-2.48-3.67-.36-.42-.31-1.05.11-1.41.42-.36,1.05-.31,1.41.11,1.01,1.17,2.05,2.38,2.81,4.2,3.9,9.31,8.13,18.11,16.95,23.62,10.96,6.85,13.26,13.43,9.44,27.1-.12.44-.52.73-.96.73Z"/>
  <path d="M546.04,489.71c-.08,0-.17,0-.25-.03-13.68-3.52-26.12-6.97-38.03-10.53-8.34-2.5-13.46-6.65-16.12-13.06-1.21-2.92-1.53-6-1.85-8.98-.18-1.72-.37-3.5-.73-5.19-.11-.54.23-1.07.77-1.19.54-.11,1.07.23,1.19.77.38,1.79.57,3.62.76,5.39.31,2.97.61,5.77,1.71,8.42,2.41,5.82,7.13,9.6,14.85,11.91,11.88,3.56,24.3,7,37.96,10.51.54.14.86.68.72,1.22-.12.45-.52.75-.97.75Z"/>
  <path d="M870.54,711.21c-.53,0-.97-.42-1-.95-.27-5.47.4-10.92,1.05-16.2.57-4.69,1.17-9.55,1.09-14.34v-.32c-.04-1.36-.1-3.64,1.78-5,.45-.32,1.07-.22,1.4.23.32.45.22,1.07-.23,1.4-.95.68-1,1.86-.96,3.33v.34c.09,4.93-.51,9.85-1.09,14.61-.64,5.19-1.29,10.56-1.04,15.86.03.55-.4,1.02-.95,1.05-.02,0-.03,0-.05,0Z"/>
  <path d="M646.17,265.92c-.41,0-.82-.03-1.22-.09-8.62-1.26-14.53-5.68-17.58-13.15-1.48-3.64-1.52-7.15-1.56-10.54-.02-1.83-.04-3.55-.27-5.3-.07-.55.31-1.05.86-1.12.55-.08,1.05.31,1.12.86.24,1.87.26,3.74.28,5.54.04,3.36.07,6.53,1.41,9.81,2.8,6.86,8.04,10.76,16.01,11.92,2.82.41,6.8-1.17,11.21-4.44,4.93-3.67,8.65-8.42,11.05-14.14.67-1.59,1.53-2.03,2.67-2.49.51-.2,1.09.04,1.3.56.21.51-.04,1.09-.56,1.3-.81.32-1.18.47-1.57,1.41-2.54,6.05-6.47,11.09-11.7,14.97-3.1,2.3-7.48,4.9-11.47,4.9Z"/>
  <path d="M296.54,515.71c-.31,0-.61-.14-.81-.41-1.52-2.09-3.28-4.06-4.99-5.96l-.9-1c-4.81-5.39-10.66-9.76-16.32-13.99-3.55-2.66-7.23-5.4-10.63-8.38-.42-.36-.46-1-.09-1.41.36-.42,1-.46,1.41-.09,3.35,2.93,6.99,5.65,10.51,8.29,5.74,4.29,11.68,8.72,16.62,14.26l.9,1c1.74,1.94,3.54,3.95,5.12,6.12.32.45.23,1.07-.22,1.4-.18.13-.38.19-.59.19Z"/>
  <path d="M703.04,443.21c-.31,0-.62-.15-.82-.42-.32-.45-.21-1.08.24-1.39,2.89-2.03,6.1-3.47,9.21-4.86,1.48-.66,3.02-1.35,4.48-2.09,10.62-5.35,16.17-13.72,17.5-26.33.21-2.03.19-4.11.16-6.13-.03-2.25-.06-4.58.24-6.91.07-.55.57-.94,1.12-.86.55.07.94.57.87,1.12-.28,2.18-.25,4.34-.22,6.62.03,2.07.05,4.22-.17,6.36-1.38,13.17-7.46,22.3-18.58,27.9-1.5.76-3.06,1.45-4.56,2.13-3.02,1.35-6.14,2.75-8.88,4.67-.17.12-.38.18-.57.18Z"/>
  <path d="M683.54,281.21c-.1,0-.2-.02-.3-.05-3.39-1.06-6.87-2.05-10.24-3-4.52-1.28-9.2-2.6-13.74-4.13-1.1-.37-2.26-.66-3.47-.97-4.04-1.01-8.61-2.16-11.13-6.88-.26-.49-.08-1.09.41-1.35.49-.26,1.09-.08,1.35.41,2.1,3.94,5.86,4.88,9.85,5.89,1.2.3,2.45.61,3.63,1.01,4.49,1.52,9.14,2.83,13.64,4.1,3.38.96,6.88,1.94,10.3,3.01.53.17.82.73.66,1.25-.13.43-.53.7-.95.7Z"/>
</svg>